<?xml version="1.0" encoding="UTF-8"?>
<svg version="1.1" xmlns="http://www.w3.org/2000/svg" width="200" height="39">
<path d="M0 0 C-0.54339792 4.56454251 -1.79463821 7.9728176 -4 12 C-4.598125 11.67 -5.19625 11.34 -5.8125 11 C-8.05386471 9.79212012 -8.05386471 9.79212012 -11 10 C-11 12.64 -11 15.28 -11 18 C-9.02463255 17.65213292 -9.02463255 17.65213292 -7 17 C-6.67 16.34 -6.34 15.68 -6 15 C-5.34 15 -4.68 15 -4 15 C-3.67 15.66 -3.34 16.32 -3 17 C-2.82984375 16.45730469 -2.6596875 15.91460938 -2.484375 15.35546875 C-0.51972339 9.55556638 -0.51972339 9.55556638 1.8125 7.0625 C4.65202051 5.68330432 6.83513593 5.12917813 10 5 C12.6875 6.3125 12.6875 6.3125 15 8 C15.99 8.66 16.98 9.32 18 10 C18 8.68 18 7.36 18 6 C22.27077656 5.94205188 26.54145236 5.90642126 30.8125 5.875 C32.02744141 5.85824219 33.24238281 5.84148438 34.49414062 5.82421875 C35.65751953 5.81777344 36.82089844 5.81132812 38.01953125 5.8046875 C39.62985229 5.78897705 39.62985229 5.78897705 41.27270508 5.77294922 C44 6 44 6 47 8 C47.33 7.34 47.66 6.68 48 6 C54 6 60 6 66 6 C67.093125 5.9175 68.18625 5.835 69.3125 5.75 C73.57188245 6.03877169 74.99101635 7.08219767 78 10 C79.0828125 9.0409375 79.0828125 9.0409375 80.1875 8.0625 C83.08051872 5.94095294 84.44745089 5.08664754 88 5 C93.2 7.2 93.2 7.2 95 9 C95.66 8.01 96.32 7.02 97 6 C100.1875 5.671875 100.1875 5.671875 104 5.75 C105.258125 5.76546875 106.51625 5.7809375 107.8125 5.796875 C111 6 111 6 113 7 C114.11375 6.67 115.2275 6.34 116.375 6 C121.28888889 4.64444444 121.28888889 4.64444444 124 6 C124.33 6.99 124.66 7.98 125 9 C125.556875 8.525625 126.11375 8.05125 126.6875 7.5625 C129.31893836 5.78450111 130.82695141 5.15109755 134 5 C137.83702129 6.30458724 139.58169311 7.38648323 141.875 10.75 C144.1791702 17.4064917 142.6794996 23.38697031 141 30 C134.77720535 31.2008902 131.6094242 30.97642917 126 28 C125.67 27.67 125.34 27.34 125 27 C124.67 27.99 124.34 28.98 124 30 C120.36429416 30.95220867 118.39889273 31.14078567 114.8125 29.875 C111.66176436 27.77450957 110.42934465 26.4939536 109 23 C108.8125 19.1875 108.8125 19.1875 109 16 C108.34 16 107.68 16 107 16 C107 20.62 107 25.24 107 30 C105.185 29.979375 103.37 29.95875 101.5 29.9375 C97.79754852 29.92009717 94.32866315 30.02677612 90.6875 30.6875 C86.05053566 31.08046308 84.07723876 30.12016416 80 28 C79.34 27.67 78.68 27.34 78 27 C77.505 28.485 77.505 28.485 77 30 C57.53 30 38.06 30 18 30 C17.505 28.02 17.505 28.02 17 26 C16.46375 26.639375 15.9275 27.27875 15.375 27.9375 C12.44667101 30.48052254 10.86177188 30.92276456 7 31 C3.8125 29.5625 3.8125 29.5625 1 28 C-2.15820443 27.78669066 -2.15820443 27.78669066 -5.3125 29.5625 C-9.41287075 31.16094961 -10.8903501 31.455501 -15 30 C-18.78533019 27.5506687 -21.44448845 25.13517578 -23.4375 21.0625 C-24.64811854 14.47135461 -24.29032716 8.87822492 -21 3 C-18.52196691 0.03951799 -15.84958191 -1.69792643 -12.1875 -3 C-7.75658351 -3 -4.09079582 -1.60904636 0 0 Z M-18 5 C-20.91929782 9.65673459 -20.52041235 14.68548604 -20 20 C-18.39701349 23.74030185 -17.40262302 24.73158465 -14 27 C-9.19792453 27.5486783 -9.19792453 27.5486783 -5.0625 25.5 C-4.711875 25.005 -4.36125 24.51 -4 24 C-4.66 23.01 -5.32 22.02 -6 21 C-6.94875 21.20625 -7.8975 21.4125 -8.875 21.625 C-9.90625 21.74875 -10.9375 21.8725 -12 22 C-14 20 -14 20 -14.23046875 17.46875 C-14.21628906 16.4890625 -14.20210937 15.509375 -14.1875 14.5 C-14.17783203 13.03046875 -14.17783203 13.03046875 -14.16796875 11.53125 C-14 9 -14 9 -13 7 C-10.36 7 -7.72 7 -5 7 C-4.67 5.35 -4.34 3.7 -4 2 C-10.1670202 0.62955107 -13.26893582 0.5179392 -18 5 Z M3.0625 11 C0.50070339 14.72624962 0.36542916 16.55800413 1 21 C2.15639806 23.31279611 3.17409828 25.17409828 5 27 C8.50079361 27.38897707 10.35448244 27.43616051 13.3125 25.4375 C15.56378317 22.18564653 15.9319763 19.94537482 16 16 C15.19929552 12.56430342 15.19929552 12.56430342 13 10 C8.6180178 8.45819145 6.93629282 8.36252404 3.0625 11 Z M21 9 C20.40929986 10.94603274 20.40929986 10.94603274 20 13 C20.33 13.33 20.66 13.66 21 14 C21.23481693 16.18292774 21.41363323 18.37203174 21.5625 20.5625 C21.64628906 21.76003906 21.73007813 22.95757812 21.81640625 24.19140625 C21.87699219 25.11824219 21.93757813 26.04507812 22 27 C22.99 27 23.98 27 25 27 C25 21.39 25 15.78 25 10 C23.68 9.67 22.36 9.34 21 9 Z M30 9 C29.61781233 10.65614657 29.28604898 12.32457024 29 14 C29.33 14.33 29.66 14.66 30 15 C30.23427778 17.01594582 30.41336124 19.038474 30.5625 21.0625 C30.64628906 22.16722656 30.73007813 23.27195312 30.81640625 24.41015625 C30.87699219 25.26480469 30.93757813 26.11945312 31 27 C32.32 27 33.64 27 35 27 C35.02699725 24.72923158 35.04639453 22.45837179 35.0625 20.1875 C35.07410156 18.92292969 35.08570313 17.65835937 35.09765625 16.35546875 C35.16159116 13.00394763 35.16159116 13.00394763 34 10 C31.98491642 9.26676204 31.98491642 9.26676204 30 9 Z M39 9 C38.30840599 10.84725052 38.30840599 10.84725052 38 13 C38.99 14.485 38.99 14.485 40 16 C40.1953125 18.69921875 40.1953125 18.69921875 40.125 21.6875 C40.10695313 22.68136719 40.08890625 23.67523438 40.0703125 24.69921875 C40.03550781 25.83810547 40.03550781 25.83810547 40 27 C41.65 27 43.3 27 45 27 C44.67 21.72 44.34 16.44 44 11 C41.525 10.01 41.525 10.01 39 9 Z M51 9 C49.69937569 12.81516464 50.10630147 16.27561763 50.4375 20.25 C50.53933594 21.51328125 50.64117187 22.7765625 50.74609375 24.078125 C50.82988281 25.04234375 50.91367188 26.0065625 51 27 C52.32 27 53.64 27 55 27 C55 21.39 55 15.78 55 10 C53.68 9.67 52.36 9.34 51 9 Z M59 9 C59.144375 9.928125 59.28875 10.85625 59.4375 11.8125 C60.16364963 16.85405316 60.5687807 21.92629204 61 27 C61.99 27 62.98 27 64 27 C64 21.39 64 15.78 64 10 C62.35 9.67 60.7 9.34 59 9 Z M69 9 C68.67 10.65 68.34 12.3 68 14 C68.66 14 69.32 14 70 14 C70 18.29 70 22.58 70 27 C71.32 27 72.64 27 74 27 C75.0679179 23.63685556 74.9736012 20.87043364 74.625 17.375 C74.53476563 16.41335937 74.44453125 15.45171875 74.3515625 14.4609375 C74.13258508 12.00164702 74.13258508 12.00164702 73 10 C70.97536745 9.34786708 70.97536745 9.34786708 69 9 Z M81.625 11 C79.55107022 14.82879344 79.02037685 17.73777998 80 22 C81.89649551 25.14658666 81.89649551 25.14658666 85 27 C88.71000718 27.41831404 88.71000718 27.41831404 92 27 C92.33 26.01 92.66 25.02 93 24 C91.88625 23.9175 90.7725 23.835 89.625 23.75 C88.42875 23.5025 87.2325 23.255 86 23 C84.7734375 20.953125 84.7734375 20.953125 84 19 C84.95712891 18.92652344 84.95712891 18.92652344 85.93359375 18.8515625 C87.17302734 18.73941406 87.17302734 18.73941406 88.4375 18.625 C89.26121094 18.55539063 90.08492187 18.48578125 90.93359375 18.4140625 C91.95646484 18.20910156 91.95646484 18.20910156 93 18 C93.33 17.34 93.66 16.68 94 16 C92.41900366 12.23346633 92.41900366 12.23346633 90 9 C86.18854318 8.49180576 84.61559239 8.48160641 81.625 11 Z M99 9 C99.33 14.94 99.66 20.88 100 27 C100.99 27 101.98 27 103 27 C103.03738281 26.24074219 103.07476562 25.48148438 103.11328125 24.69921875 C103.17902344 23.70535156 103.24476563 22.71148437 103.3125 21.6875 C103.37050781 20.70136719 103.42851562 19.71523438 103.48828125 18.69921875 C104.04622813 15.75615543 104.68540132 14.81817001 107 13 C106.67 12.01 106.34 11.02 106 10 C106 10.66 106 11.32 106 12 C105.01 12 104.02 12 103 12 C102.67 11.01 102.34 10.02 102 9 C101.01 9 100.02 9 99 9 Z M114.38671875 10.23828125 C111.90528811 13.39074666 111.86277995 17.08922854 112 21 C113.14151887 23.49058663 114.0896056 25.0896056 116 27 C117.66617115 27.04063832 119.33388095 27.042721 121 27 C120.31617939 24.00860209 120.31617939 24.00860209 118.4375 22.8125 C116.06303117 19.81860452 116.81665264 16.72806308 117 13 C117.99 13 118.98 13 120 13 C120.33 11.68 120.66 10.36 121 9 C117.44158995 8.65346217 117.44158995 8.65346217 114.38671875 10.23828125 Z M127.6875 10.4375 C125.18742589 14.23390883 125.24565276 17.58392551 126 22 C127.28264098 25.18775608 127.28264098 25.18775608 130 27 C132.80211518 27.40641365 135.14373523 27.23802206 138 27 C138 26.01 138 25.02 138 24 C136.88625 23.7525 135.7725 23.505 134.625 23.25 C131 22 131 22 129 18 C132.63 18 136.26 18 140 18 C138.90213575 12.59212615 138.90213575 12.59212615 135 9 C131.81477169 8.50996487 130.43988798 8.72655612 127.6875 10.4375 Z M120 16 C120 17.32 120 18.64 120 20 C120.66 19.67 121.32 19.34 122 19 C121.67 18.01 121.34 17.02 121 16 C120.67 16 120.34 16 120 16 Z " fill="#FF7373" transform="translate(55,4)"/>
<path d="M0 0 C-0.30782496 1.64671412 -0.62139234 3.29235576 -0.9375 4.9375 C-1.19853516 6.31228516 -1.19853516 6.31228516 -1.46484375 7.71484375 C-2 10 -2 10 -3 11 C-2.34 11.33 -1.68 11.66 -1 12 C-1.33 14.64 -1.66 17.28 -2 20 C-4.31 20 -6.62 20 -9 20 C-9 20.66 -9 21.32 -9 22 C-6.36 22 -3.72 22 -1 22 C-1.875 29.875 -1.875 29.875 -3 31 C-5.69654854 31.07319621 -8.36691458 31.09242537 -11.0625 31.0625 C-11.82111328 31.05798828 -12.57972656 31.05347656 -13.36132812 31.04882812 C-15.24091871 31.0370068 -17.12046899 31.01907078 -19 31 C-19.02505615 30.40985107 -19.0501123 29.81970215 -19.07592773 29.21166992 C-19.19200052 26.53673186 -19.31467572 23.8621362 -19.4375 21.1875 C-19.47681641 20.25873047 -19.51613281 19.32996094 -19.55664062 18.37304688 C-19.59853516 17.48037109 -19.64042969 16.58769531 -19.68359375 15.66796875 C-19.72025146 14.84578857 -19.75690918 14.0236084 -19.79467773 13.17651367 C-19.93427772 10.82094822 -19.93427772 10.82094822 -21 8 C-20.40206327 5.64811553 -19.74118205 3.31074405 -19 1 C-12.62694402 0.25492456 -6.41688675 -0.10349817 0 0 Z " fill="#FF5E5E" transform="translate(22,2)"/>
<path d="M0 0 C2.7885289 -0.22107787 5.34653181 -0.28107535 8.125 -0.1875 C8.87910156 -0.17396484 9.63320312 -0.16042969 10.41015625 -0.14648438 C12.27374127 -0.11109985 14.13695978 -0.05729167 16 0 C16 0.33 16 0.66 16 1 C13.36 1 10.72 1 8 1 C8 7.6 8 14.2 8 21 C7.67 21 7.34 21 7 21 C7 15.39 7 9.78 7 4 C5.68 3.67 4.36 3.34 3 3 C3 9.27 3 15.54 3 22 C2.34 22 1.68 22 1 22 C0.67 22.66 0.34 23.32 0 24 C-0.84454356 20.62182575 -1.10844919 18.32534757 0 15 C-0.66 15 -1.32 15 -2 15 C-2 16.98 -2 18.96 -2 21 C-4.02558881 17.65060119 -4.21738987 15.13037449 -4.125 11.25 C-4.09792969 9.77273437 -4.09792969 9.77273437 -4.0703125 8.265625 C-4.04710938 7.51796875 -4.02390625 6.7703125 -4 6 C-3.01 6.33 -2.02 6.66 -1 7 C-1.20625 6.401875 -1.4125 5.80375 -1.625 5.1875 C-2 3 -2 3 0 0 Z " fill="#FF7878" transform="translate(103,10)"/>
<path d="M0 0 C1.32 0.33 2.64 0.66 4 1 C4 4.96 4 8.92 4 13 C5.65 13.33 7.3 13.66 9 14 C9 14.66 9 15.32 9 16 C3.39 16 -2.22 16 -8 16 C-7.01 15.01 -6.02 14.02 -5 13 C-3.35 13 -1.7 13 0 13 C0 8.71 0 4.42 0 0 Z " fill="#FF7171" transform="translate(82,18)"/>
<path d="M0 0 C2.97 0.495 2.97 0.495 6 1 C6 5.62 6 10.24 6 15 C5.34 15 4.68 15 4 15 C3.67 15.66 3.34 16.32 3 17 C2.01 16.34 1.02 15.68 0 15 C-0.22137393 12.37302936 -0.28162025 9.99106036 -0.1875 7.375 C-0.17396484 6.66859375 -0.16042969 5.9621875 -0.14648438 5.234375 C-0.1111104 3.48925872 -0.05730221 1.74453392 0 0 Z " fill="#FF7676" transform="translate(119,17)"/>
<path d="M0 0 C0.33 0 0.66 0 1 0 C1.33 2.97 1.66 5.94 2 9 C2.33 6.69 2.66 4.38 3 2 C3.33 2 3.66 2 4 2 C4.144375 3.216875 4.28875 4.43375 4.4375 5.6875 C4.82780953 8.82670377 5.32351856 11.9075134 6 15 C5.01 15.33 4.02 15.66 3 16 C2.67 16.99 2.34 17.98 2 19 C-0.97 19 -3.94 19 -7 19 C-7 18.34 -7 17.68 -7 17 C-5.02 16.67 -3.04 16.34 -1 16 C-0.14701624 12.32612505 0.10789471 8.9552607 0.0625 5.1875 C0.05347656 4.21167969 0.04445312 3.23585938 0.03515625 2.23046875 C0.02355469 1.49441406 0.01195312 0.75835937 0 0 Z " fill="#FF6A6A" transform="translate(130,15)"/>
<path d="M0 0 C-0.48578543 3.12290635 -0.9986012 5.99580359 -2 9 C-2.66 8.67 -3.32 8.34 -4 8 C-3.67 6.35 -3.34 4.7 -3 3 C-7.1747728 3.9542259 -7.1747728 3.9542259 -10.25 6.6875 C-11.25017223 9.77136439 -12.15718544 12.86954593 -13 16 C-13.33 16 -13.66 16 -14 16 C-14.31137615 10.08385323 -14.00217512 6.17616401 -11 1 C-7.18081153 -1.47731144 -4.32439085 -1.00567229 0 0 Z " fill="#FF7373" transform="translate(179,10)"/>
<path d="M0 0 C0.66 0 1.32 0 2 0 C3.26237731 2.52475462 3.09856404 4.31200466 3.0625 7.125 C3.05347656 8.03507812 3.04445313 8.94515625 3.03515625 9.8828125 C3.02355469 10.58148438 3.01195313 11.28015625 3 12 C4.65 12.33 6.3 12.66 8 13 C8 11.02 8 9.04 8 7 C8.66 7 9.32 7 10 7 C9.67 9.97 9.34 12.94 9 16 C6.03 16 3.06 16 0 16 C0 10.72 0 5.44 0 0 Z " fill="#FF6C6C" transform="translate(93,18)"/>
<path d="M0 0 C0.33 0 0.66 0 1 0 C1 2.97 1 5.94 1 9 C-5.62453662 10.10631094 -10.08395447 10.39857935 -16 7 C-16.33 6.34 -16.66 5.68 -17 5 C-16.34 5 -15.68 5 -15 5 C-14.67 4.34 -14.34 3.68 -14 3 C-13.01 3.66 -12.02 4.32 -11 5 C-8.67612053 5.39387788 -6.34206251 5.73486085 -4 6 C-3.67 5.34 -3.34 4.68 -3 4 C-2.34 4 -1.68 4 -1 4 C-0.67 2.68 -0.34 1.36 0 0 Z " fill="#FF7F7F" transform="translate(151,25)"/>
<path d="M0 0 C1.2065625 0.0309375 1.2065625 0.0309375 2.4375 0.0625 C3.82300197 2.83350394 3.6252467 4.9959706 3.4375 8.0625 C2.4475 9.5475 2.4475 9.5475 1.4375 11.0625 C-2.4375 10.1875 -2.4375 10.1875 -3.5625 9.0625 C-3.6953125 7.25 -3.6953125 7.25 -3.6875 5.0625 C-3.69007812 4.340625 -3.69265625 3.61875 -3.6953125 2.875 C-3.48140927 -0.04414996 -2.93781989 0.07165414 0 0 Z M-0.5625 3.0625 C0.4375 7.0625 0.4375 7.0625 0.4375 7.0625 Z " fill="#FF7878" transform="translate(63.5625,16.9375)"/>
<path d="M0 0 C2.97 0.495 2.97 0.495 6 1 C6 2.32 6 3.64 6 5 C5.34 5 4.68 5 4 5 C4 9.29 4 13.58 4 18 C3.34 18 2.68 18 2 18 C2 12.39 2 6.78 2 1 C1.34 0.67 0.68 0.34 0 0 Z " fill="#FF8181" transform="translate(78,13)"/>
<path d="M0 0 C8.58 0 17.16 0 26 0 C26.33 0.66 26.66 1.32 27 2 C24.36 1.67 21.72 1.34 19 1 C18.67 1.66 18.34 2.32 18 3 C15.67843403 3.40729228 13.3431213 3.74438677 11 4 C11 3.01 11 2.02 11 1 C7.37 1 3.74 1 0 1 C0 0.67 0 0.34 0 0 Z " fill="#FF7D7D" transform="translate(73,10)"/>
<path d="M0 0 C0 0.66 0 1.32 0 2 C-0.99 2.33 -1.98 2.66 -3 3 C-2.67 3.66 -2.34 4.32 -2 5 C-3.65 5 -5.3 5 -7 5 C-7 5.66 -7 6.32 -7 7 C-8.9375 6.1875 -8.9375 6.1875 -11 5 C-11.33 4.01 -11.66 3.02 -12 2 C-10.43670947 0.43670947 -8.72244543 0.6552225 -6.5625 0.4375 C-5.75941406 0.35371094 -4.95632812 0.26992188 -4.12890625 0.18359375 C-2 0 -2 0 0 0 Z " fill="#FF7777" transform="translate(150,21)"/>
<path d="M0 0 C0.33 0 0.66 0 1 0 C1 1.98 1 3.96 1 6 C1.66 6 2.32 6 3 6 C3 7.32 3 8.64 3 10 C0.64561267 11.42944945 -0.48032433 12.08661261 -3.25 11.625 C-3.8275 11.41875 -4.405 11.2125 -5 11 C-4.01 10.67 -3.02 10.34 -2 10 C-2.33 8.35 -2.66 6.7 -3 5 C-2.34 5.33 -1.68 5.66 -1 6 C-1.020625 5.195625 -1.04125 4.39125 -1.0625 3.5625 C-1 1 -1 1 0 0 Z " fill="#FF6767" transform="translate(54,20)"/>
<path d="M0 0 C2.0625 0.4375 2.0625 0.4375 4 1 C4.33 2.65 4.66 4.3 5 6 C2.69 6 0.38 6 -2 6 C-1.125 1.125 -1.125 1.125 0 0 Z " fill="#FF6F6F" transform="translate(186,15)"/>
<path d="M0 0 C2.0625 0.75 2.0625 0.75 4 2 C4.33 2.99 4.66 3.98 5 5 C4 6 4 6 0.4375 6.0625 C-0.696875 6.041875 -1.83125 6.02125 -3 6 C-2.625 3.5625 -2.625 3.5625 -2 1 C-1.34 0.67 -0.68 0.34 0 0 Z " fill="#FF6E6E" transform="translate(141,15)"/>
<path d="M0 0 C3.63 0 7.26 0 11 0 C11 0.33 11 0.66 11 1 C9.02 1 7.04 1 5 1 C5 1.66 5 2.32 5 3 C5.99 3.33 6.98 3.66 8 4 C6.35 4.66 4.7 5.32 3 6 C0 2.25 0 2.25 0 0 Z " fill="#FF7777" transform="translate(184,22)"/>
<path d="M0 0 C0.33 0 0.66 0 1 0 C1 1.65 1 3.3 1 5 C0.34 3.68 -0.32 2.36 -1 1 C-0.67 0.67 -0.34 0.34 0 0 Z M-3 4 C-2.01 4.33 -1.02 4.66 0 5 C0 5.66 0 6.32 0 7 C0.66 7 1.32 7 2 7 C1.34 8.32 0.68 9.64 0 11 C-0.33 10.34 -0.66 9.68 -1 9 C-1.33 10.98 -1.66 12.96 -2 15 C-2.33 15 -2.66 15 -3 15 C-3 11.37 -3 7.74 -3 4 Z " fill="#FF8484" transform="translate(102,12)"/>
<path d="M0 0 C1.2065625 0.0309375 1.2065625 0.0309375 2.4375 0.0625 C2.4375 1.3825 2.4375 2.7025 2.4375 4.0625 C1.4475 4.0625 0.4575 4.0625 -0.5625 4.0625 C-0.8925 5.3825 -1.2225 6.7025 -1.5625 8.0625 C-2.2225 8.0625 -2.8825 8.0625 -3.5625 8.0625 C-3.60491723 5.72955225 -3.60342937 3.39547433 -3.5625 1.0625 C-2.5625 0.0625 -2.5625 0.0625 0 0 Z " fill="#FF6F6F" transform="translate(63.5625,16.9375)"/>
<path d="M0 0 C-3.44108247 3.16579587 -6.43664541 3.4929606 -11 4 C-11.99 4.495 -11.99 4.495 -13 5 C-11.99610425 2.26210251 -11.3046066 1.17768718 -8.75 -0.3125 C-5.50316278 -1.12420931 -3.23360057 -0.75200013 0 0 Z " fill="#FF7D7D" transform="translate(68,10)"/>
<path d="M0 0 C2 2 2 2 2.1953125 4.6015625 C2.17210938 5.59929688 2.14890625 6.59703125 2.125 7.625 C2.10695313 8.62789062 2.08890625 9.63078125 2.0703125 10.6640625 C2.03550781 11.82035156 2.03550781 11.82035156 2 13 C1.34 12.67 0.68 12.34 0 12 C-0.38749213 9.67504723 -0.71758117 7.3400417 -1 5 C-1.33 4.01 -1.66 3.02 -2 2 C-1.34 2 -0.68 2 0 2 C0 1.34 0 0.68 0 0 Z " fill="#FF7C7C" transform="translate(114,18)"/>
<path d="M0 0 C0.66 0.33 1.32 0.66 2 1 C1.34 5.29 0.68 9.58 0 14 C-2 12 -2 12 -2.25 8.6875 C-2.01863452 5.27485916 -1.4765288 3.04534065 0 0 Z " fill="#FF6B6B" transform="translate(180,13)"/>
<path d="M0 0 C1.23556641 0.01740234 1.23556641 0.01740234 2.49609375 0.03515625 C3.32238281 0.04417969 4.14867187 0.05320312 5 0.0625 C5.63808594 0.07410156 6.27617187 0.08570313 6.93359375 0.09765625 C6.93359375 0.42765625 6.93359375 0.75765625 6.93359375 1.09765625 C5.98484375 1.38640625 5.03609375 1.67515625 4.05859375 1.97265625 C0.88147797 2.86590734 0.88147797 2.86590734 -1.06640625 5.09765625 C-2.05640625 5.09765625 -3.04640625 5.09765625 -4.06640625 5.09765625 C-2.94676868 0.13926128 -2.94676868 0.13926128 0 0 Z " fill="#FF6D6D" transform="translate(138.06640625,10.90234375)"/>
<path d="M0 0 C1.32 0.33 2.64 0.66 4 1 C3.67 2.98 3.34 4.96 3 7 C2.01 6.67 1.02 6.34 0 6 C0.33 5.67 0.66 5.34 1 5 C-1.31 5 -3.62 5 -6 5 C-6 4.67 -6 4.34 -6 4 C-4.02 4 -2.04 4 0 4 C0 2.68 0 1.36 0 0 Z " fill="#FF7D7D" transform="translate(193,27)"/>
<path d="M0 0 C2.97 0.33 5.94 0.66 9 1 C9 1.99 9 2.98 9 4 C6.36 3.67 3.72 3.34 1 3 C0.67 2.01 0.34 1.02 0 0 Z " fill="#FF7272" transform="translate(137,31)"/>
<path d="M0 0 C0.33 0.66 0.66 1.32 1 2 C-3.625 4.125 -3.625 4.125 -7 3 C-7 2.01 -7 1.02 -7 0 C-2.25 -1.125 -2.25 -1.125 0 0 Z " fill="#FF7979" transform="translate(50,31)"/>
<path d="M0 0 C1.98 0 3.96 0 6 0 C5.47731534 2.76276177 4.89130413 5.3260876 4 8 C3.34 7.67 2.68 7.34 2 7 C2.04125 6.21625 2.0825 5.4325 2.125 4.625 C2.28728734 1.83883881 2.28728734 1.83883881 0 0 Z " fill="#FF6464" transform="translate(173,11)"/>
<path d="M0 0 C0 0.66 0 1.32 0 2 C-2.64 2 -5.28 2 -8 2 C-8 1.34 -8 0.68 -8 0 C-5.13822943 -1.43088528 -3.06624227 -0.59991697 0 0 Z " fill="#FF5656" transform="translate(131,32)"/>
<path d="M0 0 C0 0.66 0 1.32 0 2 C-2.64 2 -5.28 2 -8 2 C-8 1.34 -8 0.68 -8 0 C-5.13822943 -1.43088528 -3.06624227 -0.59991697 0 0 Z " fill="#FF5656" transform="translate(112,32)"/>
<path d="M0 0 C2.625 0.1875 2.625 0.1875 5 1 C5.33 1.66 5.66 2.32 6 3 C3.03 3 0.06 3 -3 3 C-2.01 2.01 -1.02 1.02 0 0 Z " fill="#FF5656" transform="translate(116,31)"/>
<path d="M0 0 C0 0.66 0 1.32 0 2 C-2.31 2 -4.62 2 -7 2 C-7 1.34 -7 0.68 -7 0 C-4.3333581 -1.33332095 -2.83319697 -0.67102033 0 0 Z " fill="#FF5656" transform="translate(91,32)"/>
<path d="M0 0 C2.6875 0.3125 2.6875 0.3125 5 1 C5 1.66 5 2.32 5 3 C2.36 3 -0.28 3 -3 3 C-1.8125 1.4375 -1.8125 1.4375 0 0 Z " fill="#FF5555" transform="translate(77,31)"/>
<path d="M0 0 C0.66 0 1.32 0 2 0 C2 1.32 2 2.64 2 4 C-0.64 4.33 -3.28 4.66 -6 5 C-5.67 4.34 -5.34 3.68 -5 3 C-3.66666667 2.66666667 -2.33333333 2.33333333 -1 2 C-0.67 1.34 -0.34 0.68 0 0 Z " fill="#FF8080" transform="translate(49,19)"/>
<path d="M0 0 C2.97 0 5.94 0 9 0 C8.67 1.98 8.34 3.96 8 6 C7.690625 5.0409375 7.690625 5.0409375 7.375 4.0625 C6.10461791 1.65074923 6.10461791 1.65074923 2.875 1.25 C1.92625 1.1675 0.9775 1.085 0 1 C0 0.67 0 0.34 0 0 Z " fill="#FF6262" transform="translate(75,11)"/>
</svg>
